<svg id="b97bb7d6-95f0-447b-bc12-1d70469e6c4d" data-name="Layer 1" xmlns="http://www.w3.org/2000/svg" width="578.001" height="621.926" viewBox="0 0 578.001 621.926"><path d="M677.642 491.897l-249.849 64.34a33.037 33.037 0 0 1-40.186-23.729l-75.561-293.427a33.037 33.037 0 0 1 23.728-40.187l232.443-59.857 59.495 26.634 73.658 286.04a33.037 33.037 0 0 1-23.728 40.186z" transform="translate(-311 -139.037)" fill="#f2f2f2"/><path d="M338.143 208.094a23.527 23.527 0 0 0-16.898 28.618l75.561 293.427a23.527 23.527 0 0 0 28.618 16.897l249.85-64.339a23.527 23.527 0 0 0 16.896-28.618l-72.517-281.607-52.285-23.406z" transform="translate(-311 -139.037)" fill="#fff"/><path d="M627.077 167.185l-38.667 9.957a10.99 10.99 0 0 1-13.385-7.903l-7.354-28.559a.687.687 0 0 1 .944-.799l58.57 26.01a.687.687 0 0 1-.108 1.294z" transform="translate(-311 -139.037)" fill="#f2f2f2"/><path d="M606.734 417.765l-113.752 29.293a5.495 5.495 0 0 1-2.741-10.644l113.753-29.292a5.495 5.495 0 1 1 2.74 10.643zM633.312 430.073L497.607 465.02a5.495 5.495 0 0 1-2.741-10.644l135.705-34.945a5.495 5.495 0 0 1 2.74 10.643z" transform="translate(-311 -139.037)" fill="#ccc"/><circle id="a597741b-ffcf-4aba-98b0-6652ef5d57c9" data-name="Ellipse 44" cx="135.555" cy="323.878" r="19.423" fill="#e6e6e6"/><path d="M594.64 366.934l-151.076 38.889a17.02 17.02 0 0 1-20.701-12.226l-31.66-122.99a17.02 17.02 0 0 1 12.226-20.701l151.075-38.89a17.02 17.02 0 0 1 20.7 12.226l31.66 122.99a17.02 17.02 0 0 1-12.225 20.702z" transform="translate(-311 -139.037)" fill="#fff"/><path d="M594.64 366.934l-151.076 38.889a17.02 17.02 0 0 1-20.701-12.226l-31.66-122.99a17.02 17.02 0 0 1 12.226-20.701l151.075-38.89a17.02 17.02 0 0 1 20.7 12.226l31.66 122.99a17.02 17.02 0 0 1-12.225 20.702zM403.926 251.842a15.017 15.017 0 0 0-10.787 18.266l31.66 122.99a15.017 15.017 0 0 0 18.266 10.788l151.075-38.89a15.017 15.017 0 0 0 10.787-18.265l-31.66-122.99a15.017 15.017 0 0 0-18.266-10.788z" transform="translate(-311 -139.037)" fill="#e6e6e6"/><path id="b056fd3f-f1a0-44f0-b006-deff0bee637d" data-name="Path 411" d="M546.84 252.37l-76.246 19.628a2.73 2.73 0 0 1-3.309-1.719 2.63 2.63 0 0 1 1.853-3.34l77.613-19.978c3.136 1.588 2.31 4.838.087 5.41z" transform="translate(-311 -139.037)" fill="#f2f2f2"/><path id="f1ea6668-a825-428d-96fe-a2c4e1b5a672" data-name="Path 412" d="M550.282 265.745l-76.246 19.627a2.73 2.73 0 0 1-3.308-1.719 2.63 2.63 0 0 1 1.853-3.34l77.613-19.978c3.135 1.588 2.31 4.838.087 5.41z" transform="translate(-311 -139.037)" fill="#f2f2f2"/><path id="ee9aa382-a9c9-40d0-8ed3-22ec2dd616d6" data-name="Path 413" d="M459.514 297.23l-23.27 5.99a2.962 2.962 0 0 1-3.603-2.129l-7.068-27.46a2.962 2.962 0 0 1 2.128-3.603l23.27-5.99a2.963 2.963 0 0 1 3.602 2.128l7.07 27.46a2.962 2.962 0 0 1-2.129 3.603z" transform="translate(-311 -139.037)" fill="#e6e6e6"/><path id="be954d2b-d8b8-4d26-80a0-a319e99a4b10" data-name="Path 414" d="M557.11 293.185L440.743 323.14a2.73 2.73 0 0 1-3.308-1.718 2.63 2.63 0 0 1 1.853-3.34l117.733-30.306c3.135 1.589 2.31 4.838.087 5.41z" transform="translate(-311 -139.037)" fill="#f2f2f2"/><path id="baaae9e4-1b4d-40c2-8a9d-f2abb078b489" data-name="Path 415" d="M560.553 306.563l-116.365 29.954a2.73 2.73 0 0 1-3.308-1.718 2.63 2.63 0 0 1 1.853-3.34l117.733-30.306c3.135 1.588 2.31 4.838.087 5.41z" transform="translate(-311 -139.037)" fill="#f2f2f2"/><path id="a91bf4c9-37f6-4391-92ed-1882bd0ce21c" data-name="Path 416" d="M563.994 319.932L447.63 349.886a2.73 2.73 0 0 1-3.309-1.718 2.63 2.63 0 0 1 1.853-3.34l117.733-30.306c3.135 1.589 2.31 4.838.087 5.41z" transform="translate(-311 -139.037)" fill="#f2f2f2"/><path id="efb98e07-468b-4c85-9a64-ee4cc5493d6f" data-name="Path 417" d="M567.438 333.31l-116.365 29.953a2.73 2.73 0 0 1-3.308-1.718 2.63 2.63 0 0 1 1.852-3.34L567.351 327.9c3.135 1.589 2.31 4.838.087 5.41z" transform="translate(-311 -139.037)" fill="#f2f2f2"/><path id="aeb1db98-32e5-40b8-ab89-fdad6a3263dc" data-name="Path 418" d="M570.88 346.68l-116.365 29.953a2.73 2.73 0 0 1-3.309-1.718 2.63 2.63 0 0 1 1.853-3.34l117.733-30.306c3.136 1.589 2.31 4.838.087 5.41z" transform="translate(-311 -139.037)" fill="#f2f2f2"/><path id="be265de5-288f-49a7-867d-c42e7cdbf4db" data-name="Path 395" d="M447.987 469.723a2.014 2.014 0 0 1-1.274-.087l-.025-.01-5.291-2.244a2.029 2.029 0 1 1 1.587-3.734l3.429 1.459 4.493-10.57a2.028 2.028 0 0 1 2.66-1.072l-.027.07.028-.07a2.03 2.03 0 0 1 1.072 2.66l-5.285 12.427a2.029 2.029 0 0 1-1.366 1.169z" transform="translate(-311 -139.037)" fill="#fff"/><path d="M773.475 603.715h-258a33.037 33.037 0 0 1-33-33v-303a33.037 33.037 0 0 1 33-33H755.5l50.974 40.629v295.37a33.037 33.037 0 0 1-33 33z" transform="translate(-311 -139.037)" fill="#e6e6e6"/><path d="M515.474 244.215a23.527 23.527 0 0 0-23.5 23.5v303a23.527 23.527 0 0 0 23.5 23.5h258a23.527 23.527 0 0 0 23.5-23.5V279.92l-44.796-35.705z" transform="translate(-311 -139.037)" fill="#fff"/><path d="M723.294 332.319H605.83a5.495 5.495 0 0 1 0-10.99h117.464a5.495 5.495 0 1 1 0 10.99zM745.962 350.866H605.83a5.495 5.495 0 0 1 0-10.99h140.132a5.495 5.495 0 1 1 0 10.99z" transform="translate(-311 -139.037)" fill="#6c63ff"/><path d="M723.294 404.443h-117.46a5.495 5.495 0 1 0 0 10.99h117.46a5.495 5.495 0 0 0 0-10.99zM745.964 422.993h-140.13a5.495 5.495 0 1 0 0 10.99h140.13a5.495 5.495 0 0 0 0-10.99zM723.294 498.554H605.83a5.495 5.495 0 0 1 0-10.99h117.464a5.495 5.495 0 1 1 0 10.99zM745.962 517.101H605.83a5.495 5.495 0 0 1 0-10.99h140.132a5.495 5.495 0 1 1 0 10.99z" transform="translate(-311 -139.037)" fill="#ccc"/><circle id="abdb8e2f-a218-463c-85f4-c869fef49971" data-name="Ellipse 44" cx="245.916" cy="197.06" r="19.423" fill="#6c63ff"/><path id="ba7dbbd6-0052-44b1-a552-47a8298b8d3e" data-name="Path 395" d="M554.99 343.506a2.014 2.014 0 0 1-1.212-.402l-.021-.017-4.565-3.491a2.029 2.029 0 1 1 2.468-3.22l2.957 2.267 6.987-9.115a2.028 2.028 0 0 1 2.842-.375h.001l-.043.06.044-.06a2.03 2.03 0 0 1 .375 2.844l-8.218 10.716a2.029 2.029 0 0 1-1.613.791z" transform="translate(-311 -139.037)" fill="#fff"/><path d="M578.334 419.213a19.423 19.423 0 0 1-19.42 19.43 4.176 4.176 0 0 1-.5-.02 19.422 19.422 0 1 1 19.92-19.41z" transform="translate(-311 -139.037)" fill="#ccc"/><circle id="e4a71040-498e-4958-ad41-c2d79154b8f7" data-name="Ellipse 44" cx="245.916" cy="363.295" r="19.423" fill="#ccc"/><path d="M805.482 276.651h-39.929a10.99 10.99 0 0 1-10.99-10.99v-29.492a.687.687 0 0 1 1.113-.538l50.233 39.795a.687.687 0 0 1-.427 1.225z" transform="translate(-311 -139.037)" fill="#ccc"/><path d="M578.334 419.213a19.423 19.423 0 0 1-19.42 19.43 4.176 4.176 0 0 1-.5-.02 42.05 42.05 0 0 1 3.77-38.56 19.433 19.433 0 0 1 16.15 19.15zM600.334 409.943a5.51 5.51 0 0 1 5.5-5.5h29.27a41.573 41.573 0 0 1 3.61 10.99h-32.88a5.501 5.501 0 0 1-5.5-5.49zM639.394 422.993a41.924 41.924 0 0 1-1.46 10.99h-32.1a5.495 5.495 0 1 1 0-10.99z" transform="translate(-311 -139.037)" fill="#6c63ff"/><path d="M711.816 490.77a6 6 0 0 1-8.247 1.998l-70.005-42.7a6 6 0 0 1 6.25-10.245l70.004 42.7a6 6 0 0 1 1.998 8.247z" transform="translate(-311 -139.037)" fill="#3f3d56"/><path d="M641.811 448.07a48 48 0 1 1-15.983-65.974 48.054 48.054 0 0 1 15.983 65.974zM570.1 404.328a36 36 0 1 0 49.48-11.987 36.04 36.04 0 0 0-49.48 11.987z" transform="translate(-311 -139.037)" fill="#3f3d56"/><circle cx="484.603" cy="267.173" r="24.561" fill="#a0616a"/><path d="M794.015 543.901a11.002 11.002 0 0 1 8.323-14.151 10.468 10.468 0 0 1 1.459-.18l25.871-41.523-23.632-22.467a9.432 9.432 0 1 1 13.12-13.553l32.63 32.174.066.08a8.545 8.545 0 0 1-.595 10.185l-36.25 42.873a10.301 10.301 0 0 1 .27 1.046 11.003 11.003 0 0 1-9.875 13.116q-.468.04-.932.04a11.037 11.037 0 0 1-10.455-7.64z" transform="translate(-311 -139.037)" fill="#a0616a"/><path fill="#a0616a" d="M444.151 609.001l-12.26-.001-5.832-47.288 18.094.001-.002 47.288z"/><path d="M758.277 759.922l-39.53-.001v-.5a15.386 15.386 0 0 1 15.386-15.387l24.144.001z" transform="translate(-311 -139.037)" fill="#2f2e41"/><path fill="#a0616a" d="M566.007 592.05l-10.534 6.272-29.205-37.646 15.547-9.257 24.192 40.631z"/><path d="M885.772 739.699l-33.965 20.223-.256-.43a15.386 15.386 0 0 1 5.348-21.092l20.746-12.352zM735.512 727.213c-8.213-96.706-13.099-186.545 16.924-223.194l.232-.284 50.526 20.211.083.18c.17.372 16.974 37.334 13.054 62.195l12.463 57.328 40.636 68.041a4.501 4.501 0 0 1-2.051 6.428l-17.66 7.77a4.521 4.521 0 0 1-5.648-1.766l-44.204-72.08-24.968-55.286a1.5 1.5 0 0 0-2.858.459L758.2 727.31a4.492 4.492 0 0 1-4.475 4.025h-13.728a4.53 4.53 0 0 1-4.486-4.123z" transform="translate(-311 -139.037)" fill="#2f2e41"/><path d="M752.606 504.786l-.24-.115-.038-.265c-1.887-13.21.347-27.888 6.64-43.625a34.636 34.636 0 0 1 40.202-20.743 34.594 34.594 0 0 1 22.06 16.964 34.22 34.22 0 0 1 2.373 27.425c-7.934 23.2-18.226 44.907-18.329 45.124l-.215.453z" transform="translate(-311 -139.037)" fill="#6c63ff"/><path d="M697.48 471.883a11.002 11.002 0 0 1 16.17 2.84 10.469 10.469 0 0 1 .68 1.303l47.953 9.692 12.769-30.003a9.432 9.432 0 1 1 17.289 7.544l-18.71 41.83-.052.09a8.545 8.545 0 0 1-9.748 3.01l-52.853-18.942a10.303 10.303 0 0 1-.885.62 11.003 11.003 0 0 1-15.743-4.657q-.203-.424-.365-.859a11.037 11.037 0 0 1 3.495-12.468z" transform="translate(-311 -139.037)" fill="#a0616a"/><path d="M884.33 432.512c-2.365-4.191-5.812-8.03-10.368-9.58-5.885-2.001-12.257.13-18.307 1.552-4.662 1.096-9.532 1.767-14.23.842-4.7-.925-9.231-3.66-11.369-7.944-3.145-6.304-.496-13.82-.687-20.863a25.334 25.334 0 0 0-31.923-23.81c-5.794-1.672-11.04-1.827-14.623 2.627a17 17 0 0 0-17 17h16.255a16.15 16.15 0 0 0 2.455 11.93c2.87 4.217 7.859 7.266 8.82 12.275.93 4.853-2.369 9.459-5.83 12.987-3.46 3.528-7.475 7.023-8.555 11.846a14.689 14.689 0 0 0 2.103 10.565 34.403 34.403 0 0 0 7.386 8.135 108.402 108.402 0 0 0 45.038 23.04c11.704 2.818 24.506 3.549 35.371-1.635a35.126 35.126 0 0 0 15.465-48.967z" transform="translate(-311 -139.037)" fill="#2f2e41"/><path d="M888 760.963H698a1 1 0 0 1 0-2h190a1 1 0 0 1 0 2z" transform="translate(-311 -139.037)" fill="#ccc"/></svg>